<?xml version="1.0" encoding="UTF-8" standalone="no"?>
<!-- Created with Inkscape (http://www.inkscape.org/) -->

<svg
   width="512"
   height="512"
   viewBox="0 0 512 512"
   version="1.1"
   id="svg1"
   xml:space="preserve"
   inkscape:version="1.4.3 (0d15f75042, 2025-12-25)"
   sodipodi:docname="Carrot.svg"
   xmlns:inkscape="http://www.inkscape.org/namespaces/inkscape"
   xmlns:sodipodi="http://sodipodi.sourceforge.net/DTD/sodipodi-0.dtd"
   xmlns:xlink="http://www.w3.org/1999/xlink"
   xmlns="http://www.w3.org/2000/svg"
   xmlns:svg="http://www.w3.org/2000/svg"><sodipodi:namedview
     id="namedview1"
     pagecolor="#505050"
     bordercolor="#ffffff"
     borderopacity="1"
     inkscape:showpageshadow="0"
     inkscape:pageopacity="0"
     inkscape:pagecheckerboard="1"
     inkscape:deskcolor="#505050"
     inkscape:document-units="px"
     inkscape:zoom="0.24121094"
     inkscape:cx="-959.74089"
     inkscape:cy="464.32389"
     inkscape:window-width="1906"
     inkscape:window-height="999"
     inkscape:window-x="0"
     inkscape:window-y="0"
     inkscape:window-maximized="0"
     inkscape:current-layer="layer1" /><defs
     id="defs1"><inkscape:path-effect
       effect="fillet_chamfer"
       id="path-effect31"
       is_visible="true"
       lpeversion="1"
       nodesatellites_param="F,0,1,1,0,10.96037,0,1 @ F,0,1,1,0,10.96037,0,1 @ F,0,1,1,0,10.96037,0,1 @ F,0,1,1,0,10.96037,0,1 | F,0,1,1,0,10.96037,0,1 @ F,0,0,1,0,10.96037,0,1 @ F,0,0,1,0,0,0,1 @ F,0,0,1,0,0,0,1 @ F,0,0,1,0,9.1561047,0,1 @ F,0,0,1,0,9.1561047,0,1 @ F,0,0,1,0,0,0,1 @ F,0,0,1,0,0,0,1"
       radius="0"
       unit="px"
       method="auto"
       mode="F"
       chamfer_steps="1"
       flexible="false"
       use_knot_distance="true"
       apply_no_radius="true"
       apply_with_radius="true"
       only_selected="false"
       hide_knots="false" /><linearGradient
       id="linearGradient31"
       inkscape:collect="always"><stop
         style="stop-color:#000000;stop-opacity:1;"
         offset="0"
         id="stop30" /><stop
         style="stop-color:#19182d;stop-opacity:1;"
         offset="1"
         id="stop31" /></linearGradient><linearGradient
       id="linearGradient21"
       inkscape:collect="always"><stop
         style="stop-color:#a63b00;stop-opacity:1;"
         offset="0"
         id="stop21" /><stop
         style="stop-color:#a63b00;stop-opacity:0;"
         offset="1"
         id="stop22" /></linearGradient><linearGradient
       id="linearGradient11"
       inkscape:collect="always"><stop
         style="stop-color:#000000;stop-opacity:1;"
         offset="0"
         id="stop11" /><stop
         style="stop-color:#19182d;stop-opacity:1;"
         offset="1"
         id="stop12" /></linearGradient><linearGradient
       id="linearGradient8"
       inkscape:collect="always"><stop
         style="stop-color:#ec7b00;stop-opacity:1;"
         offset="0"
         id="stop8" /><stop
         style="stop-color:#e02300;stop-opacity:1;"
         offset="1"
         id="stop9" /></linearGradient><linearGradient
       id="linearGradient3"
       inkscape:collect="always"><stop
         style="stop-color:#c16500;stop-opacity:1;"
         offset="0"
         id="stop3" /><stop
         style="stop-color:#d99523;stop-opacity:1;"
         offset="1"
         id="stop4" /></linearGradient><linearGradient
       inkscape:collect="always"
       xlink:href="#linearGradient3"
       id="linearGradient4"
       x1="380.09674"
       y1="332.89716"
       x2="380.09674"
       y2="406.43597"
       gradientUnits="userSpaceOnUse"
       gradientTransform="translate(-0.17192406,6.0478984)" /><linearGradient
       inkscape:collect="always"
       xlink:href="#linearGradient8"
       id="linearGradient9"
       x1="270.75818"
       y1="500.00793"
       x2="270.75818"
       y2="357.45337"
       gradientUnits="userSpaceOnUse"
       gradientTransform="matrix(0.41204926,0,0,0.41204926,268.53102,50.588453)" /><linearGradient
       inkscape:collect="always"
       xlink:href="#linearGradient11"
       id="linearGradient12"
       x1="189.80643"
       y1="443.08466"
       x2="351.7131"
       y2="414.53613"
       gradientUnits="userSpaceOnUse"
       gradientTransform="matrix(0.41204926,0,0,0.41204926,268.53102,50.588453)" /><linearGradient
       inkscape:collect="always"
       xlink:href="#linearGradient31"
       id="linearGradient20"
       x1="361.08737"
       y1="372.81522"
       x2="440.82138"
       y2="344.23492"
       gradientUnits="userSpaceOnUse"
       gradientTransform="translate(-0.17192406,6.0478984)" /><linearGradient
       inkscape:collect="always"
       xlink:href="#linearGradient21"
       id="linearGradient22"
       x1="338.82545"
       y1="369.66678"
       x2="421.36674"
       y2="369.66678"
       gradientUnits="userSpaceOnUse"
       gradientTransform="translate(-0.17192406,6.0478984)" /><linearGradient
       inkscape:collect="always"
       xlink:href="#linearGradient31"
       id="linearGradient33"
       x1="387.13843"
       y1="306.78494"
       x2="484.12158"
       y2="289.68417"
       gradientUnits="userSpaceOnUse" /><linearGradient
       inkscape:collect="always"
       xlink:href="#linearGradient8"
       id="linearGradient35"
       x1="435.63"
       y1="250.17372"
       x2="435.63"
       y2="346.29541"
       gradientUnits="userSpaceOnUse" /></defs><g
     inkscape:label="Layer 1"
     inkscape:groupmode="layer"
     id="layer1"><g
       id="g22"
       inkscape:label="Carrot"
       transform="matrix(1.696491,0,0,1.696491,-480.82924,-293.03307)"><path
         id="path16"
         style="fill:url(#linearGradient22);fill-opacity:1;stroke:url(#linearGradient20);stroke-width:20.6308;stroke-dasharray:none;stroke-opacity:1"
         d="m 379.65816,293.56548 c -9.39722,-0.0859 -18.80115,2.86668 -24.02149,8.92969 -3.8038,4.41782 -6.62153,9.76878 -8.60742,15.79296 -1.87308,5.68201 -3.00518,11.96272 -3.52734,18.6211 -1.17408,14.97123 0.73897,31.85545 4.27148,48.15429 1.12838,5.20629 2.42124,10.35393 3.83203,15.35938 8.85615,31.42125 22.33328,57.2809 28.58399,57.44141 10.73991,0.27577 32.14682,-49.60052 35.92773,-95.10743 0.48525,-5.84036 0.68063,-11.61022 0.52539,-17.1914 -0.4755,-17.09582 -4.23678,-32.43495 -13.00195,-42.70508 -5.19389,-6.08567 -14.5852,-9.20898 -23.98242,-9.29492 z"
         inkscape:label="Outline" /><path
         id="path3"
         style="fill:#a63b00;fill-opacity:1"
         d="m 347.02925,318.28813 c -1.87308,5.68201 -3.00518,11.96272 -3.52734,18.6211 l 27.88867,-7.36328 z m 69.61328,27.27735 -26.05078,8.05469 25.52539,9.13671 c 0.48525,-5.84036 0.68063,-11.61022 0.52539,-17.1914 z m -68.86914,39.49804 c 1.12838,5.20629 2.42124,10.35393 3.83203,15.35938 l 26.39258,-7.6543 z"
         inkscape:label="Cuts" /><path
         id="path6"
         style="fill:url(#linearGradient4)"
         d="m 379.65816,293.56548 c -9.39722,-0.0859 -18.80115,2.86668 -24.02149,8.92969 -3.8038,4.41782 -6.62153,9.76878 -8.60742,15.79296 l 24.36133,11.25782 -27.88867,7.36328 c -1.17408,14.97123 0.73897,31.85545 4.27148,48.15429 l 30.22461,7.70508 -26.39258,7.6543 c 8.85615,31.42125 22.33328,57.2809 28.58399,57.44141 10.73991,0.27577 32.14682,-49.60052 35.92773,-95.10743 l -25.52539,-9.13671 26.05078,-8.05469 c -0.4755,-17.09582 -4.23678,-32.43495 -13.00195,-42.70508 -5.19389,-6.08567 -14.5852,-9.20898 -23.98242,-9.29492 z"
         inkscape:label="Main" /><path
         style="fill:url(#linearGradient9);stroke:url(#linearGradient12);stroke-width:20.6308;stroke-dasharray:none;stroke-opacity:1;paint-order:stroke markers fill"
         d="m 358.83105,187.18705 c -9.60762,2.33099 -8.0851,54.58813 -7.91798,61.04132 0.77648,13.12864 12.80924,20.48512 18.73857,18.85316 4.99172,-3.21415 -8.63036,-14.36799 2.22342,-40.16958 34.42165,9.19009 15.38269,36.92505 17.68844,38.93436 4.61152,4.36846 20.81769,-9.0174 19.86245,-23.75377 -3.24404,-32.01754 -42.66068,-54.93529 -50.5949,-54.90549 z"
         id="path1"
         sodipodi:nodetypes="ccccccc"
         inkscape:label="Flame" /></g><path
       d="m 472.86964,275.19488 a 9.6159591,9.6159591 143.70381 0 1 -10.96037,8.05007 h -52.55852 a 10.96037,10.96037 45 0 1 -10.96037,-10.96037 9.6159591,9.6159591 143.70381 0 1 10.96037,-8.05007 h 52.55852 a 10.96037,10.96037 45 0 1 10.96037,10.96037 z m -39.03969,-48.46041 0.2147,0 a 10.96037,10.96037 45 0 1 10.96037,10.96037 v 98.70647 c 0,10.74299 3.95465,14.32293 15.10419,14.32293 h 3.60433 a 9.1561047,9.1561047 45 0 1 9.1561,9.1561 v 0.69824 a 9.1561047,9.1561047 135 0 1 -9.1561,9.1561 h -5.68767 c -17.44723,0 -35.15629,-5.4704 -35.15629,-30.98962 V 237.69484 a 10.96037,10.96037 135 0 1 10.96037,-10.96037 z"
       id="text31"
       style="font-size:266.667px;font-family:'Adwaita Sans';-inkscape-font-specification:'Adwaita Sans';fill:url(#linearGradient35);stroke:url(#linearGradient33);stroke-width:21.6424;stroke-dasharray:none;paint-order:stroke markers fill"
       aria-label="t"
       sodipodi:nodetypes="cccccccssccssc"
       inkscape:path-effect="#path-effect31"
       inkscape:original-d="m 472.86964,264.23451 v 19.01044 h -74.47926 v -19.01044 z m -50.00006,-37.50004 h 22.13544 v 109.66684 c 0,10.74299 3.95465,14.32293 15.10419,14.32293 h 12.76043 v 19.01044 h -14.84377 c -17.44723,0 -35.15629,-5.4704 -35.15629,-30.98962 z"
       transform="matrix(1.6171939,0,0,1.6171939,-360.86815,-184.06854)" /></g></svg>
